<svg width="132" height="59" viewBox="0 0 132 59" fill="none" xmlns="http://www.w3.org/2000/svg">
<path d="M24.0591 27.7297H18.7393L17.7993 30.1697H12.9994L19.1193 16.1701H23.7591L29.879 30.1697H24.9991L24.0591 27.7297ZM22.7592 24.3298L21.3992 20.8099L20.0392 24.3298H22.7592ZM35.3521 19.73V22.1299H41.1919V25.6898H35.3521V30.1697H30.6322V16.1701H42.0119V19.73H35.3521ZM49.5028 26.6498H48.2228V30.1697H43.503V16.1701H50.2428C51.5361 16.1701 52.6627 16.3834 53.6227 16.81C54.5827 17.2367 55.3226 17.85 55.8426 18.65C56.3626 19.45 56.6226 20.3833 56.6226 21.4499C56.6226 22.4499 56.3959 23.3232 55.9426 24.0698C55.4893 24.8165 54.836 25.4098 53.9827 25.8498L56.9226 30.1697H51.8827L49.5028 26.6498ZM51.8627 21.4499C51.8627 20.9299 51.7027 20.5299 51.3827 20.25C51.0628 19.9566 50.5828 19.81 49.9428 19.81H48.2228V23.0899H49.9428C50.5828 23.0899 51.0628 22.9499 51.3827 22.6699C51.7027 22.3766 51.8627 21.9699 51.8627 21.4499ZM65.7447 30.4897C64.2381 30.4897 62.8848 30.1763 61.6848 29.5497C60.4848 28.923 59.5449 28.0564 58.8649 26.9498C58.1849 25.8298 57.8449 24.5698 57.8449 23.1699C57.8449 21.7699 58.1849 20.5166 58.8649 19.41C59.5449 18.29 60.4848 17.4167 61.6848 16.79C62.8848 16.1634 64.2381 15.8501 65.7447 15.8501C67.2513 15.8501 68.6046 16.1634 69.8046 16.79C71.0045 17.4167 71.9445 18.29 72.6245 19.41C73.3045 20.5166 73.6445 21.7699 73.6445 23.1699C73.6445 24.5698 73.3045 25.8298 72.6245 26.9498C71.9445 28.0564 71.0045 28.923 69.8046 29.5497C68.6046 30.1763 67.2513 30.4897 65.7447 30.4897ZM65.7447 26.6698C66.3313 26.6698 66.858 26.5298 67.3246 26.2498C67.8046 25.9565 68.1846 25.5498 68.4646 25.0298C68.7446 24.4965 68.8846 23.8765 68.8846 23.1699C68.8846 22.4632 68.7446 21.8499 68.4646 21.3299C68.1846 20.7966 67.8046 20.3899 67.3246 20.11C66.858 19.8166 66.3313 19.67 65.7447 19.67C65.158 19.67 64.6247 19.8166 64.1447 20.11C63.6781 20.3899 63.3048 20.7966 63.0248 21.3299C62.7448 21.8499 62.6048 22.4632 62.6048 23.1699C62.6048 23.8765 62.7448 24.4965 63.0248 25.0298C63.3048 25.5498 63.6781 25.9565 64.1447 26.2498C64.6247 26.5298 65.158 26.6698 65.7447 26.6698Z" fill="white"/>
<path d="M11.0597 46.729H5.73984L4.79987 49.1689H1.8096e-07L6.11983 35.1693H10.7597L16.8795 49.1689H11.9997L11.0597 46.729ZM9.75973 43.3291L8.39977 39.8092L7.0398 43.3291H9.75973ZM31.4324 35.1693V49.1689H27.5525L22.2327 42.8091V49.1689H17.6328V35.1693H21.5127L26.8325 41.5292V35.1693H31.4324ZM42.9663 41.7892H47.0662V47.709C46.2395 48.2823 45.2796 48.7223 44.1863 49.0289C43.093 49.3356 42.0197 49.4889 40.9664 49.4889C39.4731 49.4889 38.1331 49.1823 36.9465 48.569C35.7598 47.9423 34.8265 47.0757 34.1465 45.969C33.4799 44.8491 33.1466 43.5824 33.1466 42.1691C33.1466 40.7558 33.4799 39.4959 34.1465 38.3892C34.8265 37.2693 35.7665 36.4026 36.9665 35.7893C38.1798 35.1627 39.5464 34.8493 41.0664 34.8493C42.4397 34.8493 43.6663 35.0827 44.7463 35.5493C45.8396 36.0026 46.7462 36.6693 47.4662 37.5493L44.4463 40.2092C43.5663 39.1826 42.5196 38.6692 41.3063 38.6692C40.2664 38.6692 39.4397 38.9826 38.8264 39.6092C38.2131 40.2359 37.9064 41.0892 37.9064 42.1691C37.9064 43.2224 38.2064 44.0691 38.8064 44.7091C39.4197 45.3491 40.233 45.669 41.2464 45.669C41.8463 45.669 42.4197 45.5557 42.9663 45.3291V41.7892ZM49.0772 35.1693H53.7971V45.509H60.1169V49.1689H49.0772V35.1693ZM73.0603 45.609V49.1689H61.4206V35.1693H72.8003V38.7292H66.0605V40.3692H71.9803V43.7691H66.0605V45.609H73.0603Z" fill="white"/>
<circle cx="111.388" cy="28.7523" r="18.9453" stroke="#EC1C1C" stroke-width="2.67462"/>
<path d="M116.067 0.00585938C104.992 8.07004 97.7918 21.136 97.7918 35.8848C97.7919 44.2065 100.085 51.992 104.072 58.6465L104.033 58.8418L79.9617 22.2881L116.069 0L116.067 0.00585938Z" fill="#11A55F"/>
</svg>
