<svg width="431" height="225" viewBox="0 0 431 225" fill="none" xmlns="http://www.w3.org/2000/svg">
<rect y="26.8191" width="405" height="198" fill="#E9E9E9"/>
<rect x="19.5596" width="410.455" height="203.318" rx="4.77273" fill="#F0F0F0"/>
<path d="M430.015 142.705H90.2205L25.2873 202.841H420.469C425.741 202.841 430.015 198.567 430.015 193.295V142.705Z" fill="#DFDFDF"/>
<path d="M157.322 180.32V178.458H158.825V169.104H157.322V167.242H164.343C166.018 167.242 167.387 167.519 168.448 168.072C169.51 168.611 170.295 169.366 170.804 170.338C171.312 171.31 171.566 172.454 171.566 173.77C171.566 175.101 171.312 176.26 170.804 177.247C170.31 178.219 169.533 178.974 168.471 179.512C167.424 180.051 166.063 180.32 164.388 180.32H157.322ZM161.405 178.458H164.119C165.3 178.458 166.235 178.271 166.923 177.897C167.626 177.524 168.127 176.985 168.426 176.282C168.74 175.579 168.897 174.742 168.897 173.77C168.897 172.798 168.74 171.968 168.426 171.28C168.127 170.577 167.626 170.039 166.923 169.665C166.22 169.291 165.286 169.104 164.119 169.104H161.405V178.458ZM184.688 180.32V178.458H186.191V169.104H184.688V167.242H190.274V169.104H188.771V178.458H190.274V180.32H184.688ZM210.492 180.544C209.072 180.544 207.83 180.253 206.769 179.67C205.707 179.086 204.877 178.286 204.279 177.269C203.695 176.252 203.404 175.101 203.404 173.815C203.404 172.484 203.695 171.31 204.279 170.293C204.862 169.261 205.677 168.454 206.724 167.87C207.771 167.287 208.982 166.996 210.358 166.996C211.689 166.996 212.818 167.265 213.745 167.803C214.687 168.341 215.323 169.171 215.652 170.293L214.979 169.867V167.242H216.728V171.639H215.068C214.68 170.801 214.119 170.181 213.386 169.777C212.668 169.373 211.801 169.171 210.784 169.171C209.797 169.171 208.952 169.366 208.249 169.755C207.546 170.143 207.008 170.682 206.634 171.37C206.26 172.058 206.073 172.865 206.073 173.792C206.073 174.705 206.253 175.505 206.612 176.193C206.985 176.88 207.509 177.419 208.182 177.808C208.855 178.182 209.647 178.368 210.56 178.368C211.891 178.368 212.878 178.01 213.521 177.292C214.179 176.559 214.47 175.467 214.395 174.017L215.629 175.363H212.175V173.501H217.087V174.017C217.087 175.393 216.818 176.566 216.28 177.538C215.741 178.511 214.979 179.258 213.992 179.782C213.02 180.29 211.853 180.544 210.492 180.544ZM230.373 180.32V178.458H231.876V169.104H230.373V167.242H241.791V171.527H240.086V169.104H234.455V172.761H237.304V171.415H238.875V176.08H237.304V174.622H234.455V178.458H240.467V175.923H242.172V180.32H230.373ZM261.411 180.544C260.319 180.544 259.407 180.372 258.674 180.028C257.956 179.67 257.418 179.131 257.059 178.413L257.508 178.615V180.32H255.758V175.923H257.44C257.5 176.821 257.777 177.494 258.27 177.942C258.764 178.391 259.624 178.615 260.85 178.615C261.837 178.615 262.54 178.443 262.959 178.099C263.377 177.755 263.587 177.344 263.587 176.866C263.587 176.447 263.437 176.11 263.138 175.856C262.839 175.587 262.316 175.378 261.568 175.228L259.212 174.757C258.106 174.533 257.238 174.106 256.61 173.478C255.997 172.835 255.691 172.013 255.691 171.011C255.691 170.278 255.863 169.613 256.207 169.014C256.565 168.401 257.096 167.915 257.799 167.556C258.502 167.197 259.362 167.018 260.379 167.018C261.336 167.018 262.144 167.197 262.802 167.556C263.474 167.9 263.975 168.431 264.304 169.149H263.856V167.242H265.606V171.101H263.923C263.863 170.472 263.572 169.957 263.048 169.553C262.54 169.149 261.8 168.947 260.828 168.947C260.244 168.947 259.766 169.029 259.392 169.194C259.033 169.343 258.771 169.545 258.607 169.8C258.442 170.054 258.36 170.33 258.36 170.629C258.36 171.033 258.502 171.37 258.786 171.639C259.085 171.893 259.579 172.088 260.267 172.222L262.622 172.693C263.789 172.932 264.686 173.351 265.314 173.949C265.942 174.533 266.256 175.37 266.256 176.462C266.256 177.224 266.069 177.912 265.695 178.525C265.321 179.139 264.776 179.632 264.058 180.006C263.34 180.365 262.458 180.544 261.411 180.544ZM282.237 180.32V178.458H284.077V169.104H280.824V172.11H279.007V167.242H291.726V172.11H289.909V169.104H286.656V178.458H288.496V180.32H282.237Z" fill="#B50C0C"/>
<path d="M230.507 98.8191L276.007 52.8191" stroke="#B50C0C" stroke-width="7"/>
<path d="M204.007 67.8191L228.507 91.3191" stroke="#15613D" stroke-width="7"/>
</svg>
