<svg width="431" height="225" viewBox="0 0 431 225" fill="none" xmlns="http://www.w3.org/2000/svg">
<rect y="26.8191" width="405" height="198" fill="#E9E9E9"/>
<rect x="19.5601" width="410.455" height="203.318" rx="4.77273" fill="#F0F0F0"/>
<path d="M190.343 76.078H185.95L185.173 78.0931H181.209L186.263 66.5311H190.095L195.15 78.0931H191.119L190.343 76.078ZM189.27 73.2701L188.146 70.3631L187.023 73.2701H189.27ZM199.67 69.4712V71.4532H204.493V74.3933H199.67V78.0931H195.772V66.5311H205.17V69.4712H199.67ZM211.357 75.1861H210.3V78.0931H206.401V66.5311H211.968C213.036 66.5311 213.966 66.7073 214.759 67.0596C215.552 67.412 216.163 67.9185 216.593 68.5792C217.022 69.2399 217.237 70.0107 217.237 70.8916C217.237 71.7175 217.05 72.4387 216.675 73.0554C216.301 73.672 215.761 74.162 215.056 74.5254L217.485 78.0931H213.322L211.357 75.1861ZM213.306 70.8916C213.306 70.4622 213.174 70.1318 212.909 69.9006C212.645 69.6584 212.249 69.5372 211.72 69.5372H210.3V72.246H211.72C212.249 72.246 212.645 72.1304 212.909 71.8992C213.174 71.6569 213.306 71.3211 213.306 70.8916ZM224.771 78.3574C223.526 78.3574 222.409 78.0986 221.418 77.5811C220.427 77.0636 219.65 76.3478 219.089 75.4339C218.527 74.5089 218.246 73.4683 218.246 72.3121C218.246 71.1559 218.527 70.1208 219.089 69.2069C219.65 68.2819 220.427 67.5607 221.418 67.0431C222.409 66.5256 223.526 66.2668 224.771 66.2668C226.015 66.2668 227.133 66.5256 228.124 67.0431C229.115 67.5607 229.891 68.2819 230.452 69.2069C231.014 70.1208 231.295 71.1559 231.295 72.3121C231.295 73.4683 231.014 74.5089 230.452 75.4339C229.891 76.3478 229.115 77.0636 228.124 77.5811C227.133 78.0986 226.015 78.3574 224.771 78.3574ZM224.771 75.2026C225.255 75.2026 225.69 75.087 226.075 74.8558C226.472 74.6135 226.786 74.2777 227.017 73.8482C227.248 73.4078 227.364 72.8957 227.364 72.3121C227.364 71.7285 227.248 71.222 227.017 70.7925C226.786 70.3521 226.472 70.0162 226.075 69.785C225.69 69.5427 225.255 69.4216 224.771 69.4216C224.286 69.4216 223.846 69.5427 223.449 69.785C223.064 70.0162 222.755 70.3521 222.524 70.7925C222.293 71.222 222.177 71.7285 222.177 72.3121C222.177 72.8957 222.293 73.4078 222.524 73.8482C222.755 74.2777 223.064 74.6135 223.449 74.8558C223.846 75.087 224.286 75.2026 224.771 75.2026Z" fill="#B50C0C"/>
<path d="M179.607 91.7693H175.213L174.437 93.7844H170.473L175.527 82.2223H179.359L184.413 93.7844H180.383L179.607 91.7693ZM178.533 88.9613L177.41 86.0543L176.287 88.9613H178.533ZM196.432 82.2223V93.7844H193.228L188.834 88.5319V93.7844H185.035V82.2223H188.24L192.633 87.4748V82.2223H196.432ZM205.958 87.6895H209.344V92.5786C208.661 93.0521 207.868 93.4155 206.965 93.6687C206.063 93.922 205.176 94.0486 204.306 94.0486C203.073 94.0486 201.966 93.7954 200.986 93.2888C200.006 92.7713 199.235 92.0556 198.674 91.1416C198.123 90.2166 197.848 89.1706 197.848 88.0033C197.848 86.8361 198.123 85.7955 198.674 84.8816C199.235 83.9566 200.012 83.2409 201.003 82.7344C202.005 82.2168 203.134 81.958 204.389 81.958C205.523 81.958 206.536 82.1507 207.428 82.5361C208.331 82.9105 209.08 83.4611 209.674 84.1879L207.18 86.3847C206.453 85.5368 205.589 85.1128 204.587 85.1128C203.728 85.1128 203.045 85.3716 202.539 85.8891C202.032 86.4067 201.779 87.1114 201.779 88.0033C201.779 88.8732 202.027 89.5725 202.522 90.101C203.029 90.6296 203.701 90.8939 204.537 90.8939C205.033 90.8939 205.506 90.8003 205.958 90.6131V87.6895ZM211.005 82.2223H214.903V90.7617H220.122V93.7844H211.005V82.2223ZM230.812 90.8443V93.7844H221.199V82.2223H230.597V85.1624H225.031V86.5168H229.92V89.3247H225.031V90.8443H230.812Z" fill="black"/>
<circle cx="262.467" cy="76.4849" r="15.6466" stroke="#B50C0C" stroke-width="2.20893"/>
<path d="M266.331 52.7447C257.184 59.4049 251.238 70.1953 251.238 82.3756C251.238 89.2477 253.132 95.677 256.424 101.172L256.392 101.336L236.512 71.1471L266.333 52.7389L266.331 52.7447Z" fill="#15613D"/>
<path d="M430.015 142.705H90.221L25.2878 202.841H420.47C425.742 202.841 430.015 198.567 430.015 193.295V142.705Z" fill="#DFDFDF"/>
<path d="M157.323 180.32V178.458H158.826V169.104H157.323V167.242H164.344C166.019 167.242 167.387 167.519 168.449 168.072C169.511 168.611 170.296 169.366 170.804 170.338C171.313 171.31 171.567 172.454 171.567 173.77C171.567 175.101 171.313 176.26 170.804 177.247C170.311 178.219 169.533 178.974 168.471 179.512C167.425 180.051 166.064 180.32 164.389 180.32H157.323ZM161.405 178.458H164.12C165.301 178.458 166.236 178.271 166.924 177.897C167.626 177.524 168.127 176.985 168.426 176.282C168.741 175.579 168.898 174.742 168.898 173.77C168.898 172.798 168.741 171.968 168.426 171.28C168.127 170.577 167.626 170.039 166.924 169.665C166.221 169.291 165.286 169.104 164.12 169.104H161.405V178.458ZM184.689 180.32V178.458H186.192V169.104H184.689V167.242H190.274V169.104H188.771V178.458H190.274V180.32H184.689ZM210.493 180.544C209.072 180.544 207.831 180.253 206.769 179.67C205.707 179.086 204.877 178.286 204.279 177.269C203.696 176.252 203.404 175.101 203.404 173.815C203.404 172.484 203.696 171.31 204.279 170.293C204.862 169.261 205.677 168.454 206.724 167.87C207.771 167.287 208.982 166.996 210.358 166.996C211.689 166.996 212.818 167.265 213.745 167.803C214.688 168.341 215.323 169.171 215.652 170.293L214.979 169.867V167.242H216.729V171.639H215.069C214.68 170.801 214.119 170.181 213.386 169.777C212.669 169.373 211.801 169.171 210.784 169.171C209.797 169.171 208.952 169.366 208.25 169.755C207.547 170.143 207.008 170.682 206.635 171.37C206.261 172.058 206.074 172.865 206.074 173.792C206.074 174.705 206.253 175.505 206.612 176.193C206.986 176.88 207.509 177.419 208.182 177.808C208.855 178.182 209.648 178.368 210.56 178.368C211.891 178.368 212.878 178.01 213.521 177.292C214.179 176.559 214.471 175.467 214.396 174.017L215.63 175.363H212.175V173.501H217.088V174.017C217.088 175.393 216.819 176.566 216.28 177.538C215.742 178.511 214.979 179.258 213.992 179.782C213.02 180.29 211.854 180.544 210.493 180.544ZM230.373 180.32V178.458H231.876V169.104H230.373V167.242H241.791V171.527H240.086V169.104H234.456V172.761H237.305V171.415H238.875V176.08H237.305V174.622H234.456V178.458H240.468V175.923H242.172V180.32H230.373ZM261.411 180.544C260.32 180.544 259.407 180.372 258.675 180.028C257.957 179.67 257.418 179.131 257.059 178.413L257.508 178.615V180.32H255.758V175.923H257.441C257.501 176.821 257.777 177.494 258.271 177.942C258.764 178.391 259.624 178.615 260.85 178.615C261.837 178.615 262.54 178.443 262.959 178.099C263.378 177.755 263.587 177.344 263.587 176.866C263.587 176.447 263.438 176.11 263.139 175.856C262.839 175.587 262.316 175.378 261.568 175.228L259.213 174.757C258.106 174.533 257.239 174.106 256.611 173.478C255.998 172.835 255.691 172.013 255.691 171.011C255.691 170.278 255.863 169.613 256.207 169.014C256.566 168.401 257.097 167.915 257.8 167.556C258.503 167.197 259.362 167.018 260.379 167.018C261.336 167.018 262.144 167.197 262.802 167.556C263.475 167.9 263.976 168.431 264.305 169.149H263.856V167.242H265.606V171.101H263.924C263.864 170.472 263.572 169.957 263.049 169.553C262.54 169.149 261.8 168.947 260.828 168.947C260.245 168.947 259.766 169.029 259.392 169.194C259.033 169.343 258.772 169.545 258.607 169.8C258.443 170.054 258.361 170.33 258.361 170.629C258.361 171.033 258.503 171.37 258.787 171.639C259.086 171.893 259.579 172.088 260.267 172.222L262.623 172.693C263.789 172.932 264.686 173.351 265.314 173.949C265.942 174.533 266.257 175.37 266.257 176.462C266.257 177.224 266.07 177.912 265.696 178.525C265.322 179.139 264.776 179.632 264.058 180.006C263.34 180.365 262.458 180.544 261.411 180.544ZM282.238 180.32V178.458H284.077V169.104H280.824V172.11H279.007V167.242H291.726V172.11H289.909V169.104H286.657V178.458H288.496V180.32H282.238Z" fill="#B50C0C"/>
</svg>
