<svg width="431" height="225" viewBox="0 0 431 225" fill="none" xmlns="http://www.w3.org/2000/svg">
<rect y="26.8191" width="405" height="198" fill="#E9E9E9"/>
<rect x="19.5601" width="410.455" height="203.318" rx="4.77273" fill="#F0F0F0"/>
<path d="M190.343 76.078H185.95L185.173 78.0931H181.209L186.263 66.5311H190.095L195.15 78.0931H191.119L190.343 76.078ZM189.27 73.2701L188.146 70.3631L187.023 73.2701H189.27ZM199.67 69.4712V71.4532H204.493V74.3933H199.67V78.0931H195.772V66.5311H205.17V69.4712H199.67ZM211.357 75.1861H210.3V78.0931H206.401V66.5311H211.968C213.036 66.5311 213.966 66.7073 214.759 67.0596C215.552 67.412 216.163 67.9185 216.593 68.5792C217.022 69.2399 217.237 70.0107 217.237 70.8916C217.237 71.7175 217.05 72.4387 216.675 73.0554C216.301 73.672 215.761 74.162 215.056 74.5254L217.485 78.0931H213.322L211.357 75.1861ZM213.306 70.8916C213.306 70.4622 213.174 70.1318 212.909 69.9006C212.645 69.6584 212.249 69.5372 211.72 69.5372H210.3V72.246H211.72C212.249 72.246 212.645 72.1304 212.909 71.8992C213.174 71.6569 213.306 71.3211 213.306 70.8916ZM224.771 78.3574C223.526 78.3574 222.409 78.0986 221.418 77.5811C220.427 77.0636 219.65 76.3478 219.089 75.4339C218.527 74.5089 218.246 73.4683 218.246 72.3121C218.246 71.1559 218.527 70.1208 219.089 69.2069C219.65 68.2819 220.427 67.5607 221.418 67.0431C222.409 66.5256 223.526 66.2668 224.771 66.2668C226.015 66.2668 227.133 66.5256 228.124 67.0431C229.115 67.5607 229.891 68.2819 230.452 69.2069C231.014 70.1208 231.295 71.1559 231.295 72.3121C231.295 73.4683 231.014 74.5089 230.452 75.4339C229.891 76.3478 229.115 77.0636 228.124 77.5811C227.133 78.0986 226.015 78.3574 224.771 78.3574ZM224.771 75.2026C225.255 75.2026 225.69 75.087 226.075 74.8558C226.472 74.6135 226.786 74.2777 227.017 73.8482C227.248 73.4078 227.364 72.8957 227.364 72.3121C227.364 71.7285 227.248 71.222 227.017 70.7925C226.786 70.3521 226.472 70.0162 226.075 69.785C225.69 69.5427 225.255 69.4216 224.771 69.4216C224.286 69.4216 223.846 69.5427 223.449 69.785C223.064 70.0162 222.755 70.3521 222.524 70.7925C222.293 71.222 222.177 71.7285 222.177 72.3121C222.177 72.8957 222.293 73.4078 222.524 73.8482C222.755 74.2777 223.064 74.6135 223.449 74.8558C223.846 75.087 224.286 75.2026 224.771 75.2026Z" fill="#B50C0C"/>
<path d="M179.607 91.7693H175.213L174.437 93.7844H170.473L175.527 82.2224H179.359L184.413 93.7844H180.383L179.607 91.7693ZM178.533 88.9614L177.41 86.0544L176.287 88.9614H178.533ZM196.432 82.2224V93.7844H193.228L188.834 88.532V93.7844H185.035V82.2224H188.24L192.633 87.4749V82.2224H196.432ZM205.958 87.6896H209.344V92.5787C208.661 93.0522 207.868 93.4155 206.965 93.6688C206.063 93.9221 205.176 94.0487 204.306 94.0487C203.073 94.0487 201.966 93.7954 200.986 93.2889C200.006 92.7714 199.235 92.0556 198.674 91.1417C198.123 90.2167 197.848 89.1706 197.848 88.0034C197.848 86.8362 198.123 85.7956 198.674 84.8816C199.235 83.9567 200.012 83.2409 201.003 82.7344C202.005 82.2169 203.134 81.9581 204.389 81.9581C205.523 81.9581 206.536 82.1508 207.428 82.5362C208.331 82.9106 209.08 83.4612 209.674 84.1879L207.18 86.3847C206.453 85.5368 205.589 85.1129 204.587 85.1129C203.728 85.1129 203.045 85.3717 202.539 85.8892C202.032 86.4067 201.779 87.1115 201.779 88.0034C201.779 88.8733 202.027 89.5725 202.522 90.1011C203.029 90.6296 203.701 90.8939 204.537 90.8939C205.033 90.8939 205.506 90.8003 205.958 90.6131V87.6896ZM211.005 82.2224H214.903V90.7618H220.122V93.7844H211.005V82.2224ZM230.812 90.8444V93.7844H221.199V82.2224H230.597V85.1624H225.031V86.5169H229.92V89.3248H225.031V90.8444H230.812Z" fill="black"/>
<circle cx="262.467" cy="76.4849" r="15.6466" stroke="#B50C0C" stroke-width="2.20893"/>
<path d="M266.331 52.7448C257.184 59.4049 251.238 70.1954 251.238 82.3756C251.238 89.2478 253.132 95.677 256.424 101.172L256.392 101.336L236.512 71.1471L266.333 52.7389L266.331 52.7448Z" fill="#15613D"/>
<path d="M430.015 142.705H90.221L25.2878 202.841H420.47C425.742 202.841 430.015 198.567 430.015 193.295V142.705Z" fill="#DFDFDF"/>
<path d="M123.718 177.52C122.438 177.52 121.318 177.26 120.358 176.74C119.398 176.22 118.651 175.507 118.118 174.6C117.598 173.68 117.338 172.64 117.338 171.48C117.338 170.307 117.598 169.267 118.118 168.36C118.651 167.453 119.398 166.74 120.358 166.22C121.318 165.7 122.438 165.44 123.718 165.44C125.011 165.44 126.131 165.7 127.078 166.22C128.038 166.74 128.784 167.453 129.318 168.36C129.851 169.267 130.118 170.307 130.118 171.48C130.118 172.64 129.851 173.68 129.318 174.6C128.784 175.507 128.038 176.22 127.078 176.74C126.131 177.26 125.011 177.52 123.718 177.52ZM123.718 175.58C124.531 175.58 125.238 175.413 125.838 175.08C126.438 174.747 126.904 174.273 127.238 173.66C127.571 173.047 127.738 172.327 127.738 171.5C127.738 170.673 127.571 169.953 127.238 169.34C126.904 168.713 126.438 168.233 125.838 167.9C125.238 167.553 124.531 167.38 123.718 167.38C122.904 167.38 122.198 167.553 121.598 167.9C120.998 168.233 120.531 168.713 120.198 169.34C119.878 169.953 119.718 170.673 119.718 171.5C119.718 172.327 119.878 173.047 120.198 173.66C120.531 174.273 120.998 174.747 121.598 175.08C122.198 175.413 122.904 175.58 123.718 175.58ZM141.813 177.32V175.66H143.153V167.32H141.813V165.66H148.153C149.566 165.66 150.633 165.947 151.353 166.52C152.073 167.093 152.433 167.967 152.433 169.14C152.433 170.313 152.073 171.187 151.353 171.76C150.633 172.32 149.566 172.6 148.153 172.6H146.353V170.94H147.873C148.566 170.94 149.099 170.793 149.473 170.5C149.859 170.193 150.053 169.74 150.053 169.14C150.053 168.513 149.866 168.053 149.493 167.76C149.119 167.467 148.579 167.32 147.873 167.32H145.453V175.66H147.293V177.32H141.813ZM163.985 177.32V175.66H165.325V167.32H163.985V165.66H168.965V167.32H167.625V175.66H168.965V177.32H163.985ZM180.572 177.32V175.66H181.912V167.32H180.572V165.66H184.432L190.112 173.58V167.32H188.772V165.66H193.392V167.32H192.052V177.32H189.652L183.852 169.06V175.66H185.212V177.32H180.572ZM204.893 177.32V175.66H206.233V167.32H204.893V165.66H209.873V167.32H208.533V175.66H209.873V177.32H204.893ZM227.96 177.52C226.68 177.52 225.56 177.26 224.6 176.74C223.64 176.22 222.893 175.507 222.36 174.6C221.84 173.68 221.58 172.64 221.58 171.48C221.58 170.307 221.84 169.267 222.36 168.36C222.893 167.453 223.64 166.74 224.6 166.22C225.56 165.7 226.68 165.44 227.96 165.44C229.253 165.44 230.373 165.7 231.32 166.22C232.28 166.74 233.026 167.453 233.56 168.36C234.093 169.267 234.36 170.307 234.36 171.48C234.36 172.64 234.093 173.68 233.56 174.6C233.026 175.507 232.28 176.22 231.32 176.74C230.373 177.26 229.253 177.52 227.96 177.52ZM227.96 175.58C228.773 175.58 229.48 175.413 230.08 175.08C230.68 174.747 231.146 174.273 231.48 173.66C231.813 173.047 231.98 172.327 231.98 171.5C231.98 170.673 231.813 169.953 231.48 169.34C231.146 168.713 230.68 168.233 230.08 167.9C229.48 167.553 228.773 167.38 227.96 167.38C227.146 167.38 226.44 167.553 225.84 167.9C225.24 168.233 224.773 168.713 224.44 169.34C224.12 169.953 223.96 170.673 223.96 171.5C223.96 172.327 224.12 173.047 224.44 173.66C224.773 174.273 225.24 174.747 225.84 175.08C226.44 175.413 227.146 175.58 227.96 175.58ZM246.055 177.32V175.66H247.395V167.32H246.055V165.66H249.915L255.595 173.58V167.32H254.255V165.66H258.875V167.32H257.535V177.32H255.135L249.335 169.06V175.66H250.695V177.32H246.055ZM286.474 177.32V175.66H287.814V167.32H286.474V165.66H292.814C294.228 165.66 295.294 165.947 296.014 166.52C296.734 167.093 297.094 167.967 297.094 169.14C297.094 170.313 296.734 171.187 296.014 171.76C295.294 172.32 294.228 172.6 292.814 172.6H291.014V170.94H292.534C293.228 170.94 293.761 170.793 294.134 170.5C294.521 170.193 294.714 169.74 294.714 169.14C294.714 168.513 294.528 168.053 294.154 167.76C293.781 167.467 293.241 167.32 292.534 167.32H290.114V175.66H291.954V177.32H286.474ZM308.647 177.32V175.66H309.987V167.32H308.647V165.66H313.627V167.32H312.287V175.66H313.627V177.32H308.647ZM325.234 177.32V175.66H326.574V167.32H325.234V165.66H335.414V169.48H333.894V167.32H328.874V170.58H331.414V169.38H332.814V173.54H331.414V172.24H328.874V175.66H334.234V173.4H335.754V177.32H325.234ZM353.847 177.52C352.567 177.52 351.447 177.26 350.487 176.74C349.54 176.22 348.8 175.507 348.267 174.6C347.747 173.693 347.487 172.667 347.487 171.52C347.487 170.333 347.747 169.287 348.267 168.38C348.787 167.46 349.5 166.74 350.407 166.22C351.327 165.7 352.373 165.44 353.547 165.44C354.707 165.44 355.687 165.68 356.487 166.16C357.3 166.64 357.867 167.38 358.187 168.38L357.607 168V165.66H359.167V169.6H357.687C357.34 168.84 356.833 168.28 356.167 167.92C355.5 167.56 354.773 167.38 353.987 167.38C353.133 167.38 352.4 167.553 351.787 167.9C351.173 168.247 350.7 168.727 350.367 169.34C350.033 169.953 349.867 170.673 349.867 171.5C349.867 172.313 350.027 173.027 350.347 173.64C350.68 174.253 351.147 174.733 351.747 175.08C352.347 175.413 353.053 175.58 353.867 175.58C354.72 175.58 355.453 175.38 356.067 174.98C356.68 174.58 357.173 173.933 357.547 173.04L359.327 173.94C358.887 175.1 358.207 175.987 357.287 176.6C356.38 177.213 355.233 177.52 353.847 177.52ZM371.044 177.32V175.66H372.384V167.32H371.044V165.66H381.224V169.48H379.704V167.32H374.684V170.58H377.224V169.38H378.624V173.54H377.224V172.24H374.684V175.66H380.044V173.4H381.564V177.32H371.044Z" fill="#B50C0C"/>
</svg>
